<svg xmlns="http://www.w3.org/2000/svg" viewBox="0 0 1280 320" width="1280" height="320" role="img" aria-label="Michal Hron. How organisations come to understand, structure, and govern new technology.">
  <title>Michal Hron</title>
  <rect width="1280" height="320" fill="#152C40"/>
  <rect x="96" y="69" width="10" height="10" fill="#C15A3C"/>
  <path fill="#C9D5DF" d="M122.8 79V77.6H121.6V71.3H122.8V69.9H118.7V71.3H119.9V77.6H118.7V79Z M132.5 79H134.4V69.9H132.8V76.5H132.7L131.8 74.6L129.1 69.9H127.2V79H128.8V72.5H128.8L129.8 74.3Z M140.8 79V75.2H144.4V73.6H140.8V71.4H144.9V69.9H139.1V79Z M152.4 79.2C154.8 79.2 156.4 77.5 156.4 74.5C156.4 71.4 154.8 69.8 152.4 69.8C150.1 69.8 148.5 71.4 148.5 74.5C148.5 77.5 150.1 79.2 152.4 79.2ZM152.4 77.6C151.1 77.6 150.3 76.7 150.3 75.2V73.8C150.3 72.2 151.1 71.3 152.4 71.3C153.7 71.3 154.6 72.2 154.6 73.8V75.2C154.6 76.7 153.7 77.6 152.4 77.6Z M162.4 75.5H164.1L165.8 79H167.7L165.8 75.3C166.9 74.9 167.5 74 167.5 72.7C167.5 71 166.5 69.9 164.8 69.9H160.7V79H162.4ZM162.4 74.1V71.4H164.7C165.3 71.4 165.7 71.8 165.7 72.4V73C165.7 73.7 165.3 74.1 164.7 74.1Z M172 79H173.6V72.5H173.6L174.3 73.9L176.2 77.4L178.1 73.9L178.8 72.5H178.8V79H180.4V69.9H178.6L176.3 74.4H176.2L173.9 69.9H172Z M192.6 79 189.6 69.9H187.4L184.4 79H186.1L186.8 76.7H190.1L190.8 79ZM189.6 75.2H187.3L188.4 71.5H188.5Z M201.8 71.4V69.9H194.9V71.4H197.5V79H199.2V71.4Z M209.5 79V77.6H208.3V71.3H209.5V69.9H205.4V71.3H206.6V77.6H205.4V79Z M217.4 79.2C219.8 79.2 221.3 77.5 221.3 74.5C221.3 71.4 219.8 69.8 217.4 69.8C215 69.8 213.4 71.4 213.4 74.5C213.4 77.5 215 79.2 217.4 79.2ZM217.4 77.6C216.1 77.6 215.3 76.7 215.3 75.2V73.8C215.3 72.2 216.1 71.3 217.4 71.3C218.7 71.3 219.5 72.2 219.5 73.8V75.2C219.5 76.7 218.7 77.6 217.4 77.6Z M231 79H232.9V69.9H231.3V76.5H231.2L230.3 74.6L227.6 69.9H225.7V79H227.3V72.5H227.4L228.3 74.3Z M246.1 79.2C248.3 79.2 249.5 78 249.5 76.3C249.5 74.8 248.7 74 246.8 73.6L246 73.5C245.1 73.3 244.7 73 244.7 72.3C244.7 71.7 245.2 71.3 246.2 71.3C247.2 71.3 247.8 71.7 248.2 72.2L249.4 71.1C248.7 70.2 247.7 69.8 246.3 69.8C244.3 69.8 243 70.8 243 72.4C243 73.9 243.9 74.8 245.7 75.1L246.6 75.2C247.5 75.4 247.8 75.8 247.8 76.4C247.8 77.1 247.3 77.6 246.2 77.6C245.3 77.6 244.5 77.3 243.9 76.5L242.7 77.6C243.5 78.5 244.6 79.2 246.1 79.2Z M257.3 79V75.4L260.5 69.9H258.6L256.6 73.8H256.5L254.4 69.9H252.5L255.6 75.4V79Z M266.6 79.2C268.8 79.2 270 78 270 76.3C270 74.8 269.1 74 267.3 73.6L266.5 73.5C265.6 73.3 265.2 73 265.2 72.3C265.2 71.7 265.7 71.3 266.7 71.3C267.6 71.3 268.3 71.7 268.7 72.2L269.9 71.1C269.2 70.2 268.1 69.8 266.8 69.8C264.7 69.8 263.5 70.8 263.5 72.4C263.5 73.9 264.4 74.8 266.2 75.1L267.1 75.2C268 75.4 268.3 75.8 268.3 76.4C268.3 77.1 267.7 77.6 266.7 77.6C265.8 77.6 265 77.3 264.4 76.5L263.2 77.6C264 78.5 265 79.2 266.6 79.2Z M280.2 71.4V69.9H273.3V71.4H275.9V79H277.6V71.4Z M290.2 79V77.5H285.9V75.2H289.7V73.6H285.9V71.4H290.2V69.9H284.2V79Z M294.6 79H296.2V72.5H296.3L297 73.9L298.8 77.4L300.7 73.9L301.4 72.5H301.4V79H303.1V69.9H301.2L298.9 74.4H298.9L296.5 69.9H294.6Z M310.6 79.2C312.8 79.2 314 78 314 76.3C314 74.8 313.2 74 311.3 73.6L310.5 73.5C309.6 73.3 309.2 73 309.2 72.3C309.2 71.7 309.7 71.3 310.7 71.3C311.7 71.3 312.3 71.7 312.7 72.2L313.9 71.1C313.2 70.2 312.2 69.8 310.8 69.8C308.8 69.8 307.5 70.8 307.5 72.4C307.5 73.9 308.4 74.8 310.2 75.1L311.1 75.2C312 75.4 312.3 75.8 312.3 76.4C312.3 77.1 311.8 77.6 310.7 77.6C309.8 77.6 309 77.3 308.4 76.5L307.2 77.6C308 78.5 309.1 79.2 310.6 79.2Z M325.7 75.5H327.4L329 79H331L329.1 75.3C330.2 74.9 330.8 74 330.8 72.7C330.8 71 329.8 69.9 328.1 69.9H324V79H325.7ZM325.7 74.1V71.4H327.9C328.6 71.4 329 71.8 329 72.4V73C329 73.7 328.6 74.1 327.9 74.1Z M341.2 79V77.5H337V75.2H340.7V73.6H337V71.4H341.2V69.9H335.2V79Z M348.5 79.2C350.6 79.2 351.9 78 351.9 76.3C351.9 74.8 351 74 349.2 73.6L348.3 73.5C347.5 73.3 347.1 73 347.1 72.3C347.1 71.7 347.6 71.3 348.6 71.3C349.5 71.3 350.1 71.7 350.6 72.2L351.8 71.1C351 70.2 350 69.8 348.6 69.8C346.6 69.8 345.4 70.8 345.4 72.4C345.4 73.9 346.2 74.8 348.1 75.1L348.9 75.2C349.9 75.4 350.2 75.8 350.2 76.4C350.2 77.1 349.6 77.6 348.6 77.6C347.6 77.6 346.9 77.3 346.2 76.5L345.1 77.6C345.9 78.5 346.9 79.2 348.5 79.2Z M362.2 79V77.5H357.9V75.2H361.7V73.6H357.9V71.4H362.2V69.9H356.2V79Z M374 79 371 69.9H368.8L365.8 79H367.5L368.2 76.7H371.5L372.2 79ZM371.1 75.2H368.7L369.8 71.5H369.9Z M379.6 75.5H381.3L383 79H384.9L383 75.3C384.1 74.9 384.7 74 384.7 72.7C384.7 71 383.7 69.9 382 69.9H377.9V79H379.6ZM379.6 74.1V71.4H381.8C382.5 71.4 382.9 71.8 382.9 72.4V73C382.9 73.7 382.5 74.1 381.8 74.1Z M392.5 79.2C394.2 79.2 395.3 78.4 395.9 77L394.5 76.2C394.2 77 393.6 77.6 392.5 77.6C391.3 77.6 390.5 76.8 390.5 75.2V73.8C390.5 72.2 391.3 71.3 392.5 71.3C393.6 71.3 394.1 71.8 394.4 72.6L395.9 71.9C395.2 70.5 394.2 69.8 392.5 69.8C390.2 69.8 388.6 71.5 388.6 74.5C388.6 77.6 390.2 79.2 392.5 79.2Z M405.5 79H407.2V69.9H405.5V73.6H401.7V69.9H400V79H401.7V75.2H405.5Z"/>
  <path fill="#FFFFFF" d="M95.2 159V157.2L101.2 156.4H103.1L109.2 157.2V159ZM95.2 108.1V106.4H103.6V109.3H103.4ZM100.9 159V108H103.3V131.3V159ZM118.6 159 103 113.3H101.9V106.4H112.6L125.8 145.6H124.8L124.9 145L138 106.4H139.6V111.2H139L138.7 112L123 159ZM133 159V157.2L141.1 156.1H146.8L155.1 157.2V159ZM137.9 159Q138 155.9 138.2 151.6Q138.3 147.4 138.3 142.8Q138.4 138.3 138.4 134.2V106.4H149.9Q149.7 109.6 149.6 113.7Q149.6 117.8 149.6 122.2Q149.6 126.6 149.6 130.7V134.2Q149.6 138.3 149.6 142.8Q149.6 147.4 149.6 151.6Q149.7 155.9 149.9 159ZM141.1 109.3V106.4H155.1V108.1L146.8 109.3Z M159.3 159V157.2L166.1 156.1H172L178.5 157.2V159ZM163.4 159Q163.6 156.9 163.6 154Q163.7 151.2 163.8 148Q163.8 144.9 163.8 142.3V139.9Q163.8 136.1 163.8 133.5Q163.8 130.8 163.6 128.2L159 126.8V125.4L173.6 121.2L174.8 122L174.4 132.6V142.3Q174.4 144.9 174.5 148Q174.5 151.2 174.6 154Q174.7 156.9 174.8 159ZM169.1 115.2Q166.8 115.2 165.1 113.7Q163.5 112.2 163.5 109.6Q163.5 107.2 165.1 105.7Q166.8 104.2 169.1 104.2Q171.4 104.2 173 105.7Q174.7 107.2 174.7 109.6Q174.7 112.1 173 113.6Q171.4 115.2 169.1 115.2Z M199.6 160.2Q194.8 160.2 190.8 158Q186.9 155.8 184.7 151.6Q182.4 147.3 182.4 141.2Q182.4 134.7 184.9 130.2Q187.4 125.8 191.7 123.5Q196 121.2 201.3 121.2Q205.2 121.2 208 122.6Q210.7 123.9 212.2 126.2Q213.6 128.4 213.8 131.2Q213.3 133 212.2 133.9Q211.2 134.8 209.2 134.8Q207.4 134.8 205.8 133.4Q204.3 132 204 128.3L203.6 122.4L208.1 124.9Q206.7 124 205.3 123.6Q203.9 123.3 202.3 123.3Q200 123.3 198 124.9Q196 126.5 194.8 130.1Q193.6 133.6 193.6 139.3Q193.6 144 194.8 147.3Q196.1 150.7 198.5 152.5Q200.9 154.3 204.4 154.3Q206.1 154.3 207.6 153.8Q209.1 153.3 210.4 152.4Q211.6 151.6 212.7 150.4L213.9 151.3Q212.4 154.4 210.3 156.4Q208.1 158.4 205.5 159.3Q202.8 160.2 199.6 160.2Z M217.2 159V157.2L224 156.1H230L236.4 157.2V159ZM221.3 159Q221.5 156.9 221.6 154Q221.6 151.2 221.7 148Q221.7 144.9 221.7 142.3V107.1L216.9 105.8V104.4L231.6 100.5L232.7 101.4L232.4 117.8V129.3V129.5V142.3Q232.4 144.9 232.4 148Q232.4 151.2 232.5 154Q232.6 156.9 232.8 159ZM240 159V157.2L246.6 156.1H252.4L259 157.2V159ZM243.8 159Q244 156.9 244.1 154Q244.2 151.2 244.2 148Q244.2 144.9 244.2 142.3V133.7Q244.2 130 243 128.7Q241.9 127.3 239.5 127.3Q238 127.3 236.4 127.9Q234.8 128.5 233.3 129.7Q231.8 130.8 230.4 132.4L230.2 130.4H230.9Q232.9 127.3 235.1 125.3Q237.2 123.2 239.7 122.2Q242.1 121.2 244.9 121.2Q249.5 121.2 252.2 124.2Q254.9 127.1 254.9 133.5V142.3Q254.9 144.9 255 148Q255 151.2 255.1 154Q255.2 156.9 255.3 159Z M272.3 160.2Q268 160.2 265.4 157.8Q262.7 155.3 262.7 151Q262.7 148.3 264 146Q265.4 143.6 268.5 141.7Q271.6 139.7 276.8 138.1Q278.2 137.7 280.2 137.2Q282.1 136.6 284.3 136Q286.5 135.5 288.5 134.9V136.7Q285.5 137.6 283 138.3Q280.4 139.1 279.2 139.6Q277.2 140.6 275.8 141.8Q274.4 143 273.6 144.6Q272.8 146.3 272.8 148.6Q272.8 151.8 274.2 153.3Q275.6 154.8 277.8 154.8Q279 154.8 280 154.4Q281.1 154 282.3 153.2Q283.5 152.4 285.1 150.8L285.7 154H283.3Q281.7 156.3 280 157.6Q278.3 159 276.4 159.6Q274.5 160.2 272.3 160.2ZM290.8 160.1Q287 160.1 285 158.4Q283 156.7 282.7 153.9V153.6V133.7Q282.7 129.8 282.1 127.6Q281.6 125.4 280.3 124.4Q279 123.5 276.7 123.5Q275.5 123.5 274.3 123.8Q273.2 124.1 272.2 124.6L274.5 122.4L274 128.2Q273.9 132 272.2 133.4Q270.5 134.8 268.6 134.8Q266.8 134.8 265.7 133.8Q264.6 132.9 264 131.1Q264.5 126.7 268.8 124Q273.1 121.2 280.1 121.2Q284.8 121.2 287.7 122.7Q290.6 124.2 292 127.3Q293.3 130.4 293.3 135.3V153.2Q293.3 154.4 293.8 155Q294.3 155.6 295 155.6Q295.9 155.6 296.5 155.2Q297.1 154.8 297.9 153.8L299 154.7Q298 157.2 296 158.6Q293.9 160.1 290.8 160.1Z M301.1 159V157.2L307.9 156.1H313.8L320.3 157.2V159ZM305.2 159Q305.3 156.9 305.4 154Q305.5 151.2 305.5 148Q305.6 144.9 305.6 142.3V107.1L300.8 105.8V104.4L315.4 100.5L316.5 101.4L316.2 117.3V142.3Q316.2 144.9 316.2 148Q316.3 151.2 316.4 154Q316.4 156.9 316.6 159Z M340 159V157.2L348.3 156.1H354L362.3 157.2V159ZM345.2 159Q345.3 155.9 345.4 151.6Q345.6 147.4 345.6 142.8Q345.6 138.3 345.6 134.2V130.7Q345.6 126.6 345.6 122.2Q345.6 117.8 345.5 113.7Q345.4 109.6 345.2 106.4H357.2Q357 109.6 356.9 113.7Q356.8 117.8 356.8 122.2Q356.8 126.6 356.8 130.7V134.2Q356.8 138.3 356.8 142.8Q356.8 147.4 356.9 151.6Q357 155.9 357.2 159ZM351.3 133.2V131H379.5V133.2ZM368.4 159V157.2L376.8 156.1H382.4L390.8 157.2V159ZM373.6 159Q373.8 155.9 373.9 151.6Q374 147.4 374 142.8Q374 138.3 374 134.2V130.7Q374 126.6 374 122.2Q374 117.8 373.9 113.7Q373.8 109.6 373.6 106.4H385.6Q385.4 109.6 385.3 113.7Q385.2 117.8 385.2 122.2Q385.2 126.6 385.2 130.7V134.2Q385.2 138.3 385.2 142.8Q385.2 147.4 385.3 151.6Q385.4 155.9 385.6 159ZM340 108.1V106.4H362.3V108.1L354 109.3H348.3ZM368.4 108.1V106.4H390.8V108.1L382.4 109.3H376.8Z M395 159V157.2L401.8 156.1H407.7L415.2 157.2V159ZM399.1 159Q399.2 156.9 399.3 154Q399.4 151.2 399.4 148Q399.5 144.9 399.5 142.3V139.8Q399.5 137.3 399.5 135.4Q399.5 133.4 399.4 131.7Q399.4 130 399.3 128.2L394.7 126.8V125.4L409 121.2L410.1 122V132.4V132.7V142.3Q410.1 144.9 410.2 148Q410.2 151.2 410.3 154Q410.4 156.9 410.5 159ZM409.7 137 408.5 133.2H409.6Q410.9 129.2 412.6 126.5Q414.2 123.9 416.2 122.6Q418.3 121.2 420.7 121.2Q423.2 121.2 424.8 122.5Q426.4 123.7 426.8 126.4Q426.7 129.4 425 130.8Q423.4 132.1 421.2 132.1Q419.5 132.1 418 131.2Q416.5 130.4 415.3 128.1L414 125.7L416.1 126Q414.4 127.3 412.4 130.4Q410.4 133.4 409.7 137Z M447.2 160.2Q441.4 160.2 437.3 157.8Q433.2 155.3 431 151Q428.8 146.6 428.8 140.8Q428.8 134.9 431.1 130.5Q433.5 126.1 437.6 123.7Q441.8 121.2 447.2 121.2Q453.1 121.2 457.2 123.6Q461.2 126 463.4 130.4Q465.6 134.8 465.6 140.7Q465.6 146.4 463.2 150.8Q460.8 155.2 456.7 157.7Q452.5 160.2 447.2 160.2ZM447.2 158.1Q449.4 158.1 451 156.5Q452.5 154.8 453.3 151Q454.1 147.2 454.1 140.7Q454.1 134 453.3 130.2Q452.5 126.4 451 124.8Q449.4 123.2 447.2 123.2Q445 123.2 443.4 124.9Q441.9 126.5 441 130.3Q440.2 134.1 440.2 140.8Q440.2 147.3 441 151.1Q441.9 154.9 443.4 156.5Q445 158.1 447.2 158.1Z M470.3 159V157.2L477.1 156.1H483L489.5 157.2V159ZM474.4 159Q474.5 156.9 474.6 154Q474.7 151.2 474.7 148Q474.8 144.9 474.8 142.3V139.8Q474.8 137.3 474.8 135.4Q474.8 133.4 474.7 131.7Q474.7 130 474.6 128.2L470 126.8V125.4L484.3 121.2L485.4 122V129.7V129.9V142.3Q485.4 144.9 485.4 148Q485.5 151.2 485.6 154Q485.6 156.9 485.8 159ZM493.1 159V157.2L499.6 156.1H505.5L512 157.2V159ZM496.8 159Q497.1 156.9 497.2 154Q497.2 151.2 497.2 148Q497.2 144.9 497.2 142.3V133.7Q497.2 130 496.1 128.7Q494.9 127.3 492.5 127.3Q491.1 127.3 489.5 127.9Q487.9 128.5 486.4 129.7Q484.8 130.8 483.4 132.4L483.2 130.4H484Q486 127.3 488.1 125.3Q490.3 123.2 492.7 122.2Q495.2 121.2 498 121.2Q502.5 121.2 505.2 124.2Q508 127.1 508 133.5V142.3Q508 144.9 508 148Q508 151.2 508.1 154Q508.2 156.9 508.4 159Z"/>
  <path fill="#DCE5EC" d="M107.7 203H109.5V187.6H107.7V194.4H99.9V187.6H98V203H99.9V196H107.7Z M117.7 203.3C120.8 203.3 122.8 200.9 122.8 197.3C122.8 193.7 120.8 191.4 117.7 191.4C114.7 191.4 112.6 193.7 112.6 197.3C112.6 200.9 114.7 203.3 117.7 203.3ZM117.7 201.7C115.8 201.7 114.5 200.5 114.5 198.1V196.5C114.5 194.1 115.8 192.9 117.7 192.9C119.6 192.9 120.9 194.1 120.9 196.5V198.1C120.9 200.5 119.6 201.7 117.7 201.7Z M127.5 203H129.6L131.2 197.5L132.2 194.1H132.2L133.2 197.5L134.8 203H137L140 191.6H138.3L137.1 196.6L135.9 201.5H135.9L134.5 196.6L133 191.6H131.4L130 196.6L128.6 201.5H128.6L127.4 196.6L126.2 191.6H124.4Z M152 203.3C155 203.3 157.1 200.9 157.1 197.3C157.1 193.7 155 191.4 152 191.4C149 191.4 146.9 193.7 146.9 197.3C146.9 200.9 149 203.3 152 203.3ZM152 201.7C150.1 201.7 148.8 200.5 148.8 198.1V196.5C148.8 194.1 150.1 192.9 152 192.9C153.9 192.9 155.2 194.1 155.2 196.5V198.1C155.2 200.5 153.9 201.7 152 201.7Z M161.8 203V195.3C161.8 194.2 162.9 193.4 164.8 193.4H165.9V191.6H165.2C163.3 191.6 162.3 192.7 161.9 193.7H161.8V191.6H160V203Z M177.2 204.3C177.2 202.4 176 201.2 173.2 201.2H170.7C169.7 201.2 169 201.1 169 200.4C169 199.7 169.7 199.3 170.5 199.1C170.8 199.2 171.2 199.2 171.6 199.2C174.2 199.2 175.9 197.6 175.9 195.3C175.9 194.1 175.4 193.1 174.6 192.4V191.6H176.7V190.1H175C174.1 190.1 173.7 190.7 173.7 191.6V191.8C173.1 191.5 172.4 191.4 171.6 191.4C169 191.4 167.3 193 167.3 195.3C167.3 196.9 168.1 198.1 169.4 198.8V198.9C168.3 199.2 167.5 199.7 167.5 200.8C167.5 201.6 167.9 202.1 168.5 202.4V202.7C167.4 203 166.7 203.6 166.7 204.9C166.7 206.7 168.1 207.7 171.7 207.7C175.3 207.7 177.2 206.6 177.2 204.3ZM175.5 204.4C175.5 205.6 174.4 206.2 172.4 206.2H170.8C169 206.2 168.3 205.4 168.3 204.4C168.3 203.7 168.7 203.2 169.4 202.9H173.2C174.9 202.9 175.5 203.5 175.5 204.4ZM171.6 197.8C170.1 197.8 169.2 197.1 169.2 195.6V195C169.2 193.5 170.1 192.8 171.6 192.8C173.1 192.8 174 193.5 174 195V195.6C174 197.1 173.1 197.8 171.6 197.8Z M188.4 203V201.5H187.1V195.2C187.1 192.8 185.5 191.4 182.7 191.4C180.7 191.4 179.3 192.4 178.7 193.6L179.8 194.6C180.4 193.6 181.3 192.9 182.7 192.9C184.5 192.9 185.3 193.8 185.3 195.4V196.5H183.1C179.8 196.5 178.3 197.7 178.3 199.8C178.3 201.9 179.7 203.3 182.1 203.3C183.6 203.3 184.9 202.5 185.3 201.2H185.5C185.6 202.2 186.1 203 187.4 203ZM182.3 201.8C181 201.8 180.1 201.1 180.1 200V199.5C180.1 198.4 181 197.8 183 197.8H185.3V199.7C185.3 200.9 184.1 201.8 182.3 201.8Z M192.7 203V195.1C192.7 193.7 194 193 195.4 193C197.1 193 198 194 198 196V203H199.8V195.7C199.8 193 198.3 191.4 196 191.4C194.3 191.4 193.3 192.2 192.8 193.5H192.7V191.6H190.9V203Z M204.3 189C205 189 205.4 188.6 205.4 188V187.7C205.4 187.1 205 186.7 204.3 186.7C203.5 186.7 203.2 187.1 203.2 187.7V188C203.2 188.6 203.5 189 204.3 189ZM203.4 203H205.2V191.6H203.4Z M212.3 203.3C214.9 203.3 216.5 201.9 216.5 199.7C216.5 198 215.5 196.9 213 196.5L212.2 196.4C210.8 196.2 210 195.7 210 194.6C210 193.6 210.8 192.9 212.2 192.9C213.7 192.9 214.6 193.6 215.1 194.3L216.3 193.2C215.4 192.1 214.2 191.4 212.3 191.4C210 191.4 208.3 192.5 208.3 194.7C208.3 196.8 209.8 197.7 211.9 198L212.8 198.1C214.3 198.4 214.8 199 214.8 199.9C214.8 201.1 213.9 201.8 212.4 201.8C211 201.8 210 201.1 209.1 200L207.8 201C208.8 202.4 210.2 203.3 212.3 203.3Z M228.9 203V201.5H227.6V195.2C227.6 192.8 225.9 191.4 223.2 191.4C221.2 191.4 219.8 192.4 219.2 193.6L220.2 194.6C220.8 193.6 221.8 192.9 223.1 192.9C224.9 192.9 225.8 193.8 225.8 195.4V196.5H223.6C220.3 196.5 218.7 197.7 218.7 199.8C218.7 201.9 220.1 203.3 222.5 203.3C224.1 203.3 225.3 202.5 225.8 201.2H225.9C226 202.2 226.6 203 227.9 203ZM222.8 201.8C221.4 201.8 220.6 201.1 220.6 200V199.5C220.6 198.4 221.5 197.8 223.5 197.8H225.8V199.7C225.8 200.9 224.5 201.8 222.8 201.8Z M236.1 203V201.5H233.8V193.2H236.2V191.6H233.8V188.5H232.2V190.6C232.2 191.4 231.9 191.6 231.2 191.6H230.1V193.2H232V201.1C232 202.2 232.7 203 233.9 203Z M240 189C240.7 189 241 188.6 241 188V187.7C241 187.1 240.7 186.7 240 186.7C239.2 186.7 238.9 187.1 238.9 187.7V188C238.9 188.6 239.2 189 240 189ZM239.1 203H240.8V191.6H239.1Z M248.9 203.3C251.9 203.3 254 200.9 254 197.3C254 193.7 251.9 191.4 248.9 191.4C245.8 191.4 243.8 193.7 243.8 197.3C243.8 200.9 245.8 203.3 248.9 203.3ZM248.9 201.7C247 201.7 245.6 200.5 245.6 198.1V196.5C245.6 194.1 247 192.9 248.9 192.9C250.8 192.9 252.1 194.1 252.1 196.5V198.1C252.1 200.5 250.8 201.7 248.9 201.7Z M258.7 203V195.1C258.7 193.7 260 193 261.4 193C263.1 193 264 194 264 196V203H265.8V195.7C265.8 193 264.3 191.4 262 191.4C260.3 191.4 259.3 192.2 258.8 193.5H258.7V191.6H256.9V203Z M272.8 203.3C275.4 203.3 277 201.9 277 199.7C277 198 276 196.9 273.5 196.5L272.7 196.4C271.3 196.2 270.5 195.7 270.5 194.6C270.5 193.6 271.3 192.9 272.7 192.9C274.2 192.9 275.1 193.6 275.6 194.3L276.8 193.2C275.9 192.1 274.7 191.4 272.8 191.4C270.5 191.4 268.8 192.5 268.8 194.7C268.8 196.8 270.3 197.7 272.4 198L273.3 198.1C274.8 198.4 275.3 199 275.3 199.9C275.3 201.1 274.4 201.8 272.9 201.8C271.5 201.8 270.5 201.1 269.6 200L268.3 201C269.3 202.4 270.7 203.3 272.8 203.3Z M289.5 203.3C291.7 203.3 293.2 202.2 293.9 200.6L292.6 199.7C292 201 291 201.7 289.5 201.7C287.4 201.7 286.4 200.3 286.4 198.3V196.4C286.4 194.4 287.4 192.9 289.5 192.9C290.9 192.9 291.9 193.6 292.3 194.8L293.8 194C293.1 192.5 291.8 191.4 289.5 191.4C286.3 191.4 284.5 193.7 284.5 197.3C284.5 201 286.3 203.3 289.5 203.3Z M300.5 203.3C303.6 203.3 305.7 200.9 305.7 197.3C305.7 193.7 303.6 191.4 300.5 191.4C297.5 191.4 295.4 193.7 295.4 197.3C295.4 200.9 297.5 203.3 300.5 203.3ZM300.5 201.7C298.6 201.7 297.3 200.5 297.3 198.1V196.5C297.3 194.1 298.6 192.9 300.5 192.9C302.4 192.9 303.8 194.1 303.8 196.5V198.1C303.8 200.5 302.4 201.7 300.5 201.7Z M310.3 203V195.1C310.3 193.7 311.6 193 313 193C314.7 193 315.5 194 315.5 196V203H317.2V195.1C317.2 193.7 318.5 193 319.9 193C321.6 193 322.4 194 322.4 196V203H324.1V195.7C324.1 193 322.8 191.4 320.4 191.4C318.5 191.4 317.4 192.5 317 193.7H316.9C316.3 192.1 315 191.4 313.5 191.4C311.7 191.4 310.9 192.3 310.4 193.5H310.3V191.6H308.6V203Z M332 203.3C334.2 203.3 335.8 202.2 336.5 200.7L335.3 199.8C334.7 201 333.6 201.7 332.1 201.7C330 201.7 328.8 200.2 328.8 198.3V197.8H336.9V196.9C336.9 193.7 335.1 191.4 332 191.4C329 191.4 326.9 193.7 326.9 197.3C326.9 200.9 329 203.3 332 203.3ZM332 192.9C333.8 192.9 335.1 194.2 335.1 196.2V196.4H328.8V196.3C328.8 194.3 330.1 192.9 332 192.9Z M349.7 203V201.5H347.4V193.2H349.9V191.6H347.4V188.5H345.9V190.6C345.9 191.4 345.6 191.6 344.9 191.6H343.8V193.2H345.7V201.1C345.7 202.2 346.3 203 347.5 203Z M357 203.3C360 203.3 362.1 200.9 362.1 197.3C362.1 193.7 360 191.4 357 191.4C353.9 191.4 351.8 193.7 351.8 197.3C351.8 200.9 353.9 203.3 357 203.3ZM357 201.7C355.1 201.7 353.7 200.5 353.7 198.1V196.5C353.7 194.1 355.1 192.9 357 192.9C358.9 192.9 360.2 194.1 360.2 196.5V198.1C360.2 200.5 358.9 201.7 357 201.7Z M377.2 203H378.9V191.6H377.2V199.5C377.2 201 375.8 201.7 374.4 201.7C372.7 201.7 371.8 200.6 371.8 198.6V191.6H370.1V198.9C370.1 201.7 371.6 203.3 373.9 203.3C375.8 203.3 376.7 202.2 377.1 201.2H377.2Z M384.4 203V195.1C384.4 193.7 385.8 193 387.2 193C388.9 193 389.8 194 389.8 196V203H391.5V195.7C391.5 193 390.1 191.4 387.7 191.4C386 191.4 385.1 192.2 384.5 193.5H384.4V191.6H382.7V203Z M402.4 203H404.2V186.7H402.4V193.5H402.3C401.8 192.1 400.6 191.4 399 191.4C396.2 191.4 394.4 193.7 394.4 197.3C394.4 201 396.2 203.3 399 203.3C400.6 203.3 401.7 202.6 402.3 201.2H402.4ZM399.5 201.7C397.5 201.7 396.3 200.3 396.3 198.3V196.4C396.3 194.3 397.5 193 399.5 193C401.1 193 402.4 193.9 402.4 195.1V199.4C402.4 200.8 401.1 201.7 399.5 201.7Z M412.2 203.3C414.3 203.3 416 202.2 416.7 200.7L415.4 199.8C414.8 201 413.7 201.7 412.3 201.7C410.2 201.7 408.9 200.2 408.9 198.3V197.8H417.1V196.9C417.1 193.7 415.2 191.4 412.2 191.4C409.1 191.4 407.1 193.7 407.1 197.3C407.1 200.9 409.1 203.3 412.2 203.3ZM412.2 192.9C414 192.9 415.2 194.2 415.2 196.2V196.4H408.9V196.3C408.9 194.3 410.3 192.9 412.2 192.9Z M421.8 203V195.3C421.8 194.2 422.9 193.4 424.8 193.4H425.8V191.6H425.2C423.3 191.6 422.3 192.7 421.9 193.7H421.8V191.6H420V203Z M431.5 203.3C434.1 203.3 435.7 201.9 435.7 199.7C435.7 198 434.7 196.9 432.2 196.5L431.3 196.4C429.9 196.2 429.2 195.7 429.2 194.6C429.2 193.6 429.9 192.9 431.4 192.9C432.8 192.9 433.8 193.6 434.3 194.3L435.5 193.2C434.6 192.1 433.3 191.4 431.5 191.4C429.2 191.4 427.5 192.5 427.5 194.7C427.5 196.8 429 197.7 431.1 198L432 198.1C433.5 198.4 434 199 434 199.9C434 201.1 433.1 201.8 431.6 201.8C430.2 201.8 429.1 201.1 428.3 200L427 201C428 202.4 429.4 203.3 431.5 203.3Z M443.4 203V201.5H441V193.2H443.5V191.6H441V188.5H439.5V190.6C439.5 191.4 439.2 191.6 438.5 191.6H437.4V193.2H439.3V201.1C439.3 202.2 439.9 203 441.2 203Z M455.6 203V201.5H454.3V195.2C454.3 192.8 452.7 191.4 450 191.4C447.9 191.4 446.5 192.4 445.9 193.6L447 194.6C447.6 193.6 448.5 192.9 449.9 192.9C451.7 192.9 452.6 193.8 452.6 195.4V196.5H450.3C447 196.5 445.5 197.7 445.5 199.8C445.5 201.9 446.9 203.3 449.3 203.3C450.9 203.3 452.1 202.5 452.6 201.2H452.7C452.8 202.2 453.3 203 454.6 203ZM449.6 201.8C448.2 201.8 447.3 201.1 447.3 200V199.5C447.3 198.4 448.2 197.8 450.2 197.8H452.6V199.7C452.6 200.9 451.3 201.8 449.6 201.8Z M459.9 203V195.1C459.9 193.7 461.2 193 462.7 193C464.3 193 465.2 194 465.2 196V203H467V195.7C467 193 465.5 191.4 463.2 191.4C461.5 191.4 460.5 192.2 460 193.5H459.9V191.6H458.1V203Z M477.9 203H479.6V186.7H477.9V193.5H477.8C477.2 192.1 476 191.4 474.5 191.4C471.6 191.4 469.8 193.7 469.8 197.3C469.8 201 471.6 203.3 474.5 203.3C476 203.3 477.1 202.6 477.8 201.2H477.9ZM474.9 201.7C473 201.7 471.7 200.3 471.7 198.3V196.4C471.7 194.3 473 193 474.9 193C476.6 193 477.9 193.9 477.9 195.1V199.4C477.9 200.8 476.6 201.7 474.9 201.7Z M484.5 200.4C483.6 200.4 483.2 201 483.2 201.7V202C483.2 202.6 483.4 203.1 484 203.2C483.8 204.2 483.2 205 482.4 205.9H483.8C485.1 204.8 485.8 203.2 485.8 202V201.7C485.8 201 485.4 200.4 484.5 200.4Z M498 203.3C500.6 203.3 502.2 201.9 502.2 199.7C502.2 198 501.2 196.9 498.7 196.5L497.8 196.4C496.4 196.2 495.6 195.7 495.6 194.6C495.6 193.6 496.4 192.9 497.9 192.9C499.3 192.9 500.3 193.6 500.8 194.3L501.9 193.2C501 192.1 499.8 191.4 498 191.4C495.7 191.4 493.9 192.5 493.9 194.7C493.9 196.8 495.5 197.7 497.6 198L498.5 198.1C500 198.4 500.5 199 500.5 199.9C500.5 201.1 499.6 201.8 498.1 201.8C496.7 201.8 495.6 201.1 494.7 200L493.5 201C494.5 202.4 495.9 203.3 498 203.3Z M509.8 203V201.5H507.5V193.2H510V191.6H507.5V188.5H505.9V190.6C505.9 191.4 505.7 191.6 504.9 191.6H503.9V193.2H505.7V201.1C505.7 202.2 506.4 203 507.6 203Z M514.6 203V195.3C514.6 194.2 515.7 193.4 517.6 193.4H518.7V191.6H518C516.1 191.6 515.1 192.7 514.7 193.7H514.6V191.6H512.8V203Z M527.9 203H529.7V191.6H527.9V199.5C527.9 201 526.5 201.7 525.2 201.7C523.5 201.7 522.6 200.6 522.6 198.6V191.6H520.8V198.9C520.8 201.7 522.3 203.3 524.6 203.3C526.5 203.3 527.4 202.2 527.8 201.2H527.9Z M537.6 203.3C539.8 203.3 541.3 202.2 542 200.6L540.7 199.7C540.1 201 539.1 201.7 537.6 201.7C535.5 201.7 534.5 200.3 534.5 198.3V196.4C534.5 194.4 535.5 192.9 537.6 192.9C539 192.9 540 193.6 540.4 194.8L541.9 194C541.2 192.5 539.9 191.4 537.6 191.4C534.4 191.4 532.6 193.7 532.6 197.3C532.6 201 534.4 203.3 537.6 203.3Z M549.2 203V201.5H546.9V193.2H549.4V191.6H546.9V188.5H545.3V190.6C545.3 191.4 545 191.6 544.3 191.6H543.2V193.2H545.1V201.1C545.1 202.2 545.8 203 547 203Z M559.2 203H560.9V191.6H559.2V199.5C559.2 201 557.8 201.7 556.4 201.7C554.7 201.7 553.8 200.6 553.8 198.6V191.6H552.1V198.9C552.1 201.7 553.6 203.3 555.9 203.3C557.8 203.3 558.7 202.2 559.1 201.2H559.2Z M566.4 203V195.3C566.4 194.2 567.6 193.4 569.5 193.4H570.5V191.6H569.8C568 191.6 567 192.7 566.6 193.7H566.4V191.6H564.7V203Z M576.9 203.3C579.1 203.3 580.7 202.2 581.4 200.7L580.2 199.8C579.6 201 578.5 201.7 577 201.7C574.9 201.7 573.7 200.2 573.7 198.3V197.8H581.8V196.9C581.8 193.7 580 191.4 576.9 191.4C573.8 191.4 571.8 193.7 571.8 197.3C571.8 200.9 573.8 203.3 576.9 203.3ZM576.9 192.9C578.7 192.9 579.9 194.2 579.9 196.2V196.4H573.7V196.3C573.7 194.3 575 192.9 576.9 192.9Z M585.4 200.4C584.5 200.4 584.1 201 584.1 201.7V202C584.1 202.6 584.3 203.1 584.9 203.2C584.7 204.2 584.2 205 583.3 205.9H584.8C586 204.8 586.8 203.2 586.8 202V201.7C586.8 201 586.3 200.4 585.4 200.4Z M604.7 203V201.5H603.4V195.2C603.4 192.8 601.8 191.4 599.1 191.4C597 191.4 595.6 192.4 595 193.6L596.1 194.6C596.7 193.6 597.6 192.9 599 192.9C600.8 192.9 601.6 193.8 601.6 195.4V196.5H599.4C596.1 196.5 594.6 197.7 594.6 199.8C594.6 201.9 596 203.3 598.4 203.3C600 203.3 601.2 202.5 601.6 201.2H601.8C601.9 202.2 602.4 203 603.7 203ZM598.7 201.8C597.3 201.8 596.4 201.1 596.4 200V199.5C596.4 198.4 597.3 197.8 599.3 197.8H601.6V199.7C601.6 200.9 600.4 201.8 598.7 201.8Z M609 203V195.1C609 193.7 610.3 193 611.7 193C613.4 193 614.3 194 614.3 196V203H616.1V195.7C616.1 193 614.6 191.4 612.3 191.4C610.6 191.4 609.6 192.2 609.1 193.5H609V191.6H607.2V203Z M627 203H628.7V186.7H627V193.5H626.9C626.3 192.1 625.1 191.4 623.6 191.4C620.7 191.4 618.9 193.7 618.9 197.3C618.9 201 620.7 203.3 623.6 203.3C625.1 203.3 626.2 202.6 626.9 201.2H627ZM624 201.7C622.1 201.7 620.8 200.3 620.8 198.3V196.4C620.8 194.3 622.1 193 624 193C625.6 193 627 193.9 627 195.1V199.4C627 200.8 625.6 201.7 624 201.7Z M647.2 204.3C647.2 202.4 646 201.2 643.2 201.2H640.8C639.8 201.2 639 201.1 639 200.4C639 199.7 639.8 199.3 640.5 199.1C640.9 199.2 641.3 199.2 641.6 199.2C644.2 199.2 645.9 197.6 645.9 195.3C645.9 194.1 645.4 193.1 644.6 192.4V191.6H646.8V190.1H645.1C644.2 190.1 643.8 190.7 643.8 191.6V191.8C643.2 191.5 642.4 191.4 641.6 191.4C639 191.4 637.4 193 637.4 195.3C637.4 196.9 638.1 198.1 639.5 198.8V198.9C638.3 199.2 637.5 199.7 637.5 200.8C637.5 201.6 637.9 202.1 638.5 202.4V202.7C637.4 203 636.7 203.6 636.7 204.9C636.7 206.7 638.2 207.7 641.7 207.7C645.4 207.7 647.2 206.6 647.2 204.3ZM645.6 204.4C645.6 205.6 644.4 206.2 642.5 206.2H640.9C639.1 206.2 638.4 205.4 638.4 204.4C638.4 203.7 638.7 203.2 639.4 202.9H643.2C645 202.9 645.6 203.5 645.6 204.4ZM641.6 197.8C640.1 197.8 639.2 197.1 639.2 195.6V195C639.2 193.5 640.1 192.8 641.6 192.8C643.1 192.8 644.1 193.5 644.1 195V195.6C644.1 197.1 643.1 197.8 641.6 197.8Z M653.4 203.3C656.5 203.3 658.6 200.9 658.6 197.3C658.6 193.7 656.5 191.4 653.4 191.4C650.4 191.4 648.3 193.7 648.3 197.3C648.3 200.9 650.4 203.3 653.4 203.3ZM653.4 201.7C651.5 201.7 650.2 200.5 650.2 198.1V196.5C650.2 194.1 651.5 192.9 653.4 192.9C655.3 192.9 656.7 194.1 656.7 196.5V198.1C656.7 200.5 655.3 201.7 653.4 201.7Z M665.8 203 669.8 191.6H668.2L666.1 197.3L664.9 201.2H664.8L663.6 197.3L661.6 191.6H659.8L663.8 203Z M676.2 203.3C678.3 203.3 680 202.2 680.7 200.7L679.4 199.8C678.8 201 677.7 201.7 676.3 201.7C674.2 201.7 672.9 200.2 672.9 198.3V197.8H681.1V196.9C681.1 193.7 679.2 191.4 676.2 191.4C673.1 191.4 671.1 193.7 671.1 197.3C671.1 200.9 673.1 203.3 676.2 203.3ZM676.2 192.9C678 192.9 679.2 194.2 679.2 196.2V196.4H672.9V196.3C672.9 194.3 674.3 192.9 676.2 192.9Z M685.8 203V195.3C685.8 194.2 686.9 193.4 688.8 193.4H689.8V191.6H689.2C687.3 191.6 686.3 192.7 685.9 193.7H685.8V191.6H684V203Z M693.8 203V195.1C693.8 193.7 695.2 193 696.6 193C698.3 193 699.2 194 699.2 196V203H701V195.7C701 193 699.5 191.4 697.1 191.4C695.5 191.4 694.5 192.2 693.9 193.5H693.8V191.6H692.1V203Z M711.5 203V195.1C711.5 193.7 712.9 193 714.3 193C716 193 716.9 194 716.9 196V203H718.6V195.7C718.6 193 717.2 191.4 714.8 191.4C713.1 191.4 712.2 192.2 711.6 193.5H711.5V191.6H709.8V203Z M726.5 203.3C728.7 203.3 730.3 202.2 731 200.7L729.8 199.8C729.2 201 728.1 201.7 726.7 201.7C724.5 201.7 723.3 200.2 723.3 198.3V197.8H731.4V196.9C731.4 193.7 729.6 191.4 726.5 191.4C723.5 191.4 721.4 193.7 721.4 197.3C721.4 200.9 723.5 203.3 726.5 203.3ZM726.5 192.9C728.3 192.9 729.6 194.2 729.6 196.2V196.4H723.3V196.3C723.3 194.3 724.6 192.9 726.5 192.9Z M736.1 203H738.2L739.8 197.5L740.8 194.1H740.8L741.8 197.5L743.4 203H745.6L748.6 191.6H746.9L745.7 196.6L744.5 201.5H744.5L743.1 196.6L741.6 191.6H740L738.6 196.6L737.2 201.5H737.2L736 196.6L734.8 191.6H733.1Z M761 203V201.5H758.7V193.2H761.2V191.6H758.7V188.5H757.1V190.6C757.1 191.4 756.9 191.6 756.2 191.6H755.1V193.2H757V201.1C757 202.2 757.6 203 758.8 203Z M768.2 203.3C770.4 203.3 772 202.2 772.7 200.7L771.5 199.8C770.9 201 769.8 201.7 768.3 201.7C766.2 201.7 765 200.2 765 198.3V197.8H773.1V196.9C773.1 193.7 771.3 191.4 768.2 191.4C765.2 191.4 763.1 193.7 763.1 197.3C763.1 200.9 765.2 203.3 768.2 203.3ZM768.2 192.9C770 192.9 771.2 194.2 771.2 196.2V196.4H765V196.3C765 194.3 766.3 192.9 768.2 192.9Z M780.3 203.3C782.4 203.3 783.9 202.2 784.6 200.6L783.3 199.7C782.7 201 781.7 201.7 780.3 201.7C778.2 201.7 777.1 200.3 777.1 198.3V196.4C777.1 194.4 778.2 192.9 780.3 192.9C781.7 192.9 782.6 193.6 783 194.8L784.5 194C783.9 192.5 782.5 191.4 780.3 191.4C777.1 191.4 775.2 193.7 775.2 197.3C775.2 201 777.1 203.3 780.3 203.3Z M787.1 203H788.9V195.1C788.9 193.7 790.2 193 791.6 193C793.3 193 794.2 194 794.2 196V203H796V195.7C796 193 794.5 191.4 792.2 191.4C790.5 191.4 789.5 192.2 789 193.5H788.9V186.7H787.1Z M801.4 203V195.1C801.4 193.7 802.7 193 804.1 193C805.8 193 806.7 194 806.7 196V203H808.5V195.7C808.5 193 807 191.4 804.7 191.4C803 191.4 802 192.2 801.5 193.5H801.4V191.6H799.6V203Z M816.4 203.3C819.4 203.3 821.5 200.9 821.5 197.3C821.5 193.7 819.4 191.4 816.4 191.4C813.4 191.4 811.3 193.7 811.3 197.3C811.3 200.9 813.4 203.3 816.4 203.3ZM816.4 201.7C814.5 201.7 813.2 200.5 813.2 198.1V196.5C813.2 194.1 814.5 192.9 816.4 192.9C818.3 192.9 819.6 194.1 819.6 196.5V198.1C819.6 200.5 818.3 201.7 816.4 201.7Z M827.9 203V201.5H826.2V186.7H824.4V201.2C824.4 202.2 825.1 203 826.3 203Z M834.7 203.3C837.7 203.3 839.8 200.9 839.8 197.3C839.8 193.7 837.7 191.4 834.7 191.4C831.7 191.4 829.6 193.7 829.6 197.3C829.6 200.9 831.7 203.3 834.7 203.3ZM834.7 201.7C832.8 201.7 831.5 200.5 831.5 198.1V196.5C831.5 194.1 832.8 192.9 834.7 192.9C836.6 192.9 837.9 194.1 837.9 196.5V198.1C837.9 200.5 836.6 201.7 834.7 201.7Z M852.3 204.3C852.3 202.4 851.1 201.2 848.3 201.2H845.8C844.8 201.2 844.1 201.1 844.1 200.4C844.1 199.7 844.9 199.3 845.6 199.1C845.9 199.2 846.3 199.2 846.7 199.2C849.3 199.2 851 197.6 851 195.3C851 194.1 850.5 193.1 849.7 192.4V191.6H851.9V190.1H850.2C849.2 190.1 848.8 190.7 848.8 191.6V191.8C848.2 191.5 847.5 191.4 846.7 191.4C844.1 191.4 842.4 193 842.4 195.3C842.4 196.9 843.2 198.1 844.5 198.8V198.9C843.4 199.2 842.6 199.7 842.6 200.8C842.6 201.6 843 202.1 843.6 202.4V202.7C842.5 203 841.8 203.6 841.8 204.9C841.8 206.7 843.3 207.7 846.8 207.7C850.4 207.7 852.3 206.6 852.3 204.3ZM850.6 204.4C850.6 205.6 849.5 206.2 847.5 206.2H845.9C844.1 206.2 843.4 205.4 843.4 204.4C843.4 203.7 843.8 203.2 844.5 202.9H848.3C850 202.9 850.6 203.5 850.6 204.4ZM846.7 197.8C845.2 197.8 844.3 197.1 844.3 195.6V195C844.3 193.5 845.2 192.8 846.7 192.8C848.2 192.8 849.1 193.5 849.1 195V195.6C849.1 197.1 848.2 197.8 846.7 197.8Z M858.7 199.4 858.1 201.2H858L857.4 199.4L854.7 191.6H853L857.2 203.4L856.3 205.9H854.6V207.4H855.5C857.1 207.4 857.6 207 858.1 205.6L863.2 191.6H861.4Z"/>
  <line x1="96" y1="251" x2="1184" y2="251" stroke="#C9D5DF" stroke-width="1"/>
  <line x1="96.0" y1="237" x2="96.0" y2="251" stroke="#C9D5DF" stroke-width="1.5"/>
  <line x1="114.13" y1="245" x2="114.13" y2="251" stroke="#6F8BA3" stroke-width="1"/>
  <line x1="132.27" y1="245" x2="132.27" y2="251" stroke="#6F8BA3" stroke-width="1"/>
  <line x1="150.4" y1="245" x2="150.4" y2="251" stroke="#6F8BA3" stroke-width="1"/>
  <line x1="168.53" y1="245" x2="168.53" y2="251" stroke="#6F8BA3" stroke-width="1"/>
  <line x1="186.67" y1="237" x2="186.67" y2="251" stroke="#C9D5DF" stroke-width="1.5"/>
  <line x1="204.8" y1="245" x2="204.8" y2="251" stroke="#6F8BA3" stroke-width="1"/>
  <line x1="222.93" y1="245" x2="222.93" y2="251" stroke="#6F8BA3" stroke-width="1"/>
  <line x1="241.07" y1="245" x2="241.07" y2="251" stroke="#6F8BA3" stroke-width="1"/>
  <line x1="259.2" y1="245" x2="259.2" y2="251" stroke="#6F8BA3" stroke-width="1"/>
  <line x1="277.33" y1="237" x2="277.33" y2="251" stroke="#C9D5DF" stroke-width="1.5"/>
  <line x1="295.47" y1="245" x2="295.47" y2="251" stroke="#6F8BA3" stroke-width="1"/>
  <line x1="313.6" y1="245" x2="313.6" y2="251" stroke="#6F8BA3" stroke-width="1"/>
  <line x1="331.73" y1="245" x2="331.73" y2="251" stroke="#6F8BA3" stroke-width="1"/>
  <line x1="349.87" y1="245" x2="349.87" y2="251" stroke="#6F8BA3" stroke-width="1"/>
  <line x1="368.0" y1="237" x2="368.0" y2="251" stroke="#C9D5DF" stroke-width="1.5"/>
  <line x1="386.13" y1="245" x2="386.13" y2="251" stroke="#6F8BA3" stroke-width="1"/>
  <line x1="404.27" y1="245" x2="404.27" y2="251" stroke="#6F8BA3" stroke-width="1"/>
  <line x1="422.4" y1="245" x2="422.4" y2="251" stroke="#6F8BA3" stroke-width="1"/>
  <line x1="440.53" y1="245" x2="440.53" y2="251" stroke="#6F8BA3" stroke-width="1"/>
  <line x1="458.67" y1="237" x2="458.67" y2="251" stroke="#C9D5DF" stroke-width="1.5"/>
  <line x1="476.8" y1="245" x2="476.8" y2="251" stroke="#6F8BA3" stroke-width="1"/>
  <line x1="494.93" y1="245" x2="494.93" y2="251" stroke="#6F8BA3" stroke-width="1"/>
  <line x1="513.07" y1="245" x2="513.07" y2="251" stroke="#6F8BA3" stroke-width="1"/>
  <line x1="531.2" y1="245" x2="531.2" y2="251" stroke="#6F8BA3" stroke-width="1"/>
  <line x1="549.33" y1="237" x2="549.33" y2="251" stroke="#C9D5DF" stroke-width="1.5"/>
  <line x1="567.47" y1="245" x2="567.47" y2="251" stroke="#6F8BA3" stroke-width="1"/>
  <line x1="585.6" y1="245" x2="585.6" y2="251" stroke="#6F8BA3" stroke-width="1"/>
  <line x1="603.73" y1="245" x2="603.73" y2="251" stroke="#6F8BA3" stroke-width="1"/>
  <line x1="621.87" y1="245" x2="621.87" y2="251" stroke="#6F8BA3" stroke-width="1"/>
  <line x1="640.0" y1="237" x2="640.0" y2="251" stroke="#C9D5DF" stroke-width="1.5"/>
  <line x1="658.13" y1="245" x2="658.13" y2="251" stroke="#6F8BA3" stroke-width="1"/>
  <line x1="676.27" y1="245" x2="676.27" y2="251" stroke="#6F8BA3" stroke-width="1"/>
  <line x1="694.4" y1="245" x2="694.4" y2="251" stroke="#6F8BA3" stroke-width="1"/>
  <line x1="712.53" y1="245" x2="712.53" y2="251" stroke="#6F8BA3" stroke-width="1"/>
  <line x1="730.67" y1="237" x2="730.67" y2="251" stroke="#C9D5DF" stroke-width="1.5"/>
  <line x1="748.8" y1="245" x2="748.8" y2="251" stroke="#6F8BA3" stroke-width="1"/>
  <line x1="766.93" y1="245" x2="766.93" y2="251" stroke="#6F8BA3" stroke-width="1"/>
  <line x1="785.07" y1="245" x2="785.07" y2="251" stroke="#6F8BA3" stroke-width="1"/>
  <line x1="803.2" y1="245" x2="803.2" y2="251" stroke="#6F8BA3" stroke-width="1"/>
  <line x1="821.33" y1="237" x2="821.33" y2="251" stroke="#C9D5DF" stroke-width="1.5"/>
  <line x1="839.47" y1="245" x2="839.47" y2="251" stroke="#6F8BA3" stroke-width="1"/>
  <line x1="857.6" y1="245" x2="857.6" y2="251" stroke="#6F8BA3" stroke-width="1"/>
  <line x1="875.73" y1="245" x2="875.73" y2="251" stroke="#6F8BA3" stroke-width="1"/>
  <line x1="893.87" y1="245" x2="893.87" y2="251" stroke="#6F8BA3" stroke-width="1"/>
  <line x1="912.0" y1="237" x2="912.0" y2="251" stroke="#C9D5DF" stroke-width="1.5"/>
  <line x1="930.13" y1="245" x2="930.13" y2="251" stroke="#6F8BA3" stroke-width="1"/>
  <line x1="948.27" y1="245" x2="948.27" y2="251" stroke="#6F8BA3" stroke-width="1"/>
  <line x1="966.4" y1="245" x2="966.4" y2="251" stroke="#6F8BA3" stroke-width="1"/>
  <line x1="984.53" y1="245" x2="984.53" y2="251" stroke="#6F8BA3" stroke-width="1"/>
  <line x1="1002.67" y1="237" x2="1002.67" y2="251" stroke="#C9D5DF" stroke-width="1.5"/>
  <line x1="1020.8" y1="245" x2="1020.8" y2="251" stroke="#6F8BA3" stroke-width="1"/>
  <line x1="1038.93" y1="245" x2="1038.93" y2="251" stroke="#6F8BA3" stroke-width="1"/>
  <line x1="1057.07" y1="245" x2="1057.07" y2="251" stroke="#6F8BA3" stroke-width="1"/>
  <line x1="1075.2" y1="245" x2="1075.2" y2="251" stroke="#6F8BA3" stroke-width="1"/>
  <line x1="1093.33" y1="237" x2="1093.33" y2="251" stroke="#C9D5DF" stroke-width="1.5"/>
  <line x1="1111.47" y1="245" x2="1111.47" y2="251" stroke="#6F8BA3" stroke-width="1"/>
  <line x1="1129.6" y1="245" x2="1129.6" y2="251" stroke="#6F8BA3" stroke-width="1"/>
  <line x1="1147.73" y1="245" x2="1147.73" y2="251" stroke="#6F8BA3" stroke-width="1"/>
  <line x1="1165.87" y1="245" x2="1165.87" y2="251" stroke="#6F8BA3" stroke-width="1"/>
  <line x1="1184.0" y1="237" x2="1184.0" y2="251" stroke="#C9D5DF" stroke-width="1.5"/>
</svg>
